<svg width="431" height="410" viewBox="0 0 431 410" fill="none" xmlns="http://www.w3.org/2000/svg">
<path fill-rule="evenodd" clip-rule="evenodd" d="M201.297 398.615C158.177 407.972 110.52 418.186 72.1776 396.377C32.5484 373.835 3.0117 329.635 0.12022 284.183C-2.60924 241.279 42.0686 212.359 57.9283 172.391C72.2208 136.373 63.0561 92.7976 87.8798 63.0231C116.211 29.0419 157.146 3.7909 201.297 0.429118C247.042 -3.05406 293.176 14.9344 328.018 44.7382C361.322 73.2257 370.467 118.058 386.473 158.827C403.716 202.746 445.385 248.954 424.879 291.453C403.894 334.946 338.793 327.091 295.207 347.982C262.33 363.739 236.933 390.883 201.297 398.615Z" fill="#D1E5FF" fill-opacity="0.5"/>
</svg>
